<?xml version="1.0" encoding="UTF-8"?>
<svg id="Layer_1" xmlns="http://www.w3.org/2000/svg" xmlns:xlink="http://www.w3.org/1999/xlink" version="1.1" viewBox="0 0 1000 800">
  <!-- Generator: Adobe Illustrator 29.5.1, SVG Export Plug-In . SVG Version: 2.1.0 Build 141)  -->
  <defs>
    <style>
      .st0 {
        fill: url(#linear-gradient);
      }

      .st0, .st1, .st2, .st3, .st4, .st5 {
        stroke: #231f20;
        stroke-miterlimit: 10;
      }

      .st1 {
        fill: #fff;
      }

      .st2 {
        fill: url(#linear-gradient1);
      }

      .st3 {
        fill: url(#linear-gradient2);
      }

      .st4 {
        fill: url(#linear-gradient3);
      }

      .st5 {
        fill: url(#linear-gradient4);
      }
    </style>
    <linearGradient id="linear-gradient" x1="333.51" y1="440.49" x2="490.23" y2="440.49" gradientUnits="userSpaceOnUse">
      <stop offset="0" stop-color="#75c043"/>
      <stop offset="1" stop-color="#253d8b"/>
      <stop offset="1" stop-color="#231f20"/>
    </linearGradient>
    <linearGradient id="linear-gradient1" x1="105.71" y1="446.16" x2="286.9" y2="446.16" xlink:href="#linear-gradient"/>
    <linearGradient id="linear-gradient2" x1="793.66" y1="273.46" x2="877.98" y2="273.46" xlink:href="#linear-gradient"/>
    <linearGradient id="linear-gradient3" x1="508.25" y1="440.11" x2="683.03" y2="440.11" xlink:href="#linear-gradient"/>
    <linearGradient id="linear-gradient4" x1="794.72" y1="516.98" x2="876.92" y2="516.98" xlink:href="#linear-gradient"/>
  </defs>
  <polygon class="st0" points="333.51 281.19 490.23 271.62 490.23 314.3 379.07 316.51 379.07 380.53 426.73 379.05 426.73 432.44 379.07 432.44 379.07 551.97 477.99 551.24 477.99 609.37 333.51 609.37 333.51 281.19"/>
  <path class="st2" d="M286.9,463.67c-.51,194.68-181.19,145.7-181.19,145.7v-331.86s181.71-8.52,181.19,186.16Z"/>
  <path class="st3" d="M794.21,276.22c-4.75-24.54,22.13-44.25,45.84-38.62,23.71,5.63,37.93,13.23,37.93,35.82s-10.27,30.74-41.09,35.81c-30.83,5.07-37.94-8.47-42.68-33.01Z"/>
  <path class="st4" d="M563.59,371.31c-.1,53.72,101.79,68.8,109.53,156.73s-99.04,130.98-99.04,130.98l-24.47-26.49s88.04-62.59,86.22-103.02c-1.81-40.43-127.58-105.79-127.58-171.44s143.31-136.87,143.31-136.87l31.47,39s-119.33,57.4-119.44,111.11Z"/>
  <polygon class="st5" points="794.72 344.51 876.92 344.51 873.76 689.45 798.67 689.45 794.72 344.51"/>
  <path class="st1" d="M136.81,571.8v-249.58s122.69,22.42,122.69,133.61-122.69,115.97-122.69,115.97Z"/>
</svg>